<?xml version="1.0" encoding="UTF-8" standalone="no"?>
<svg
   xmlns:dc="http://purl.org/dc/elements/1.1/"
   xmlns:cc="http://creativecommons.org/ns#"
   xmlns:rdf="http://www.w3.org/1999/02/22-rdf-syntax-ns#"
   xmlns:svg="http://www.w3.org/2000/svg"
   xmlns="http://www.w3.org/2000/svg"
   xmlns:sodipodi="http://sodipodi.sourceforge.net/DTD/sodipodi-0.dtd"
   xmlns:inkscape="http://www.inkscape.org/namespaces/inkscape"
   id="Ebene_1"
   data-name="Ebene 1"
   viewBox="0 0 195.91 112.17"
   version="1.1"
   sodipodi:docname="i_generator.svg"
   inkscape:version="0.92.3 (2405546, 2018-03-11)">
  <metadata
     id="metadata61">
    <rdf:RDF>
      <cc:Work
         rdf:about="">
        <dc:format>image/svg+xml</dc:format>
        <dc:type
           rdf:resource="http://purl.org/dc/dcmitype/StillImage" />
        <dc:title>Generator</dc:title>
      </cc:Work>
    </rdf:RDF>
  </metadata>
  <sodipodi:namedview
     pagecolor="#ffffff"
     bordercolor="#666666"
     borderopacity="1"
     objecttolerance="10"
     gridtolerance="10"
     guidetolerance="10"
     inkscape:pageopacity="0"
     inkscape:pageshadow="2"
     inkscape:window-width="1920"
     inkscape:window-height="1031"
     id="namedview59"
     showgrid="false"
     inkscape:pagecheckerboard="true"
     inkscape:zoom="1.4445408"
     inkscape:cx="101.76244"
     inkscape:cy="56.084999"
     inkscape:window-x="0"
     inkscape:window-y="25"
     inkscape:window-maximized="1"
     inkscape:current-layer="Ebene_1" />
  <defs
     id="defs4">
    <style
       id="style2">.cls-1{fill:none;stroke:#2e2d2c;stroke-linecap:round;stroke-linejoin:round;stroke-width:5px;}</style>
  </defs>
  <title
     id="title6">Generator</title>
  <path
     class="cls-1"
     d="M268.39,405.76"
     transform="translate(-172.3 -363.27)"
     id="path8"
     style="stroke:#464646;stroke-opacity:1" />
  <polygon
     class="cls-1"
     points="2.5 23.62 2.5 37.26 10.05 37.26 10.05 93.94 2.5 93.94 2.5 109.67 124.27 109.67 124.27 94.55 124.27 94.55 124.27 37.26 124.27 37.26 124.27 23.62 2.5 23.62"
     id="polygon10"
     style="stroke:#464646;stroke-opacity:1" />
  <line
     class="cls-1"
     x1="10.05"
     y1="93.85"
     x2="38.62"
     y2="93.85"
     id="line12"
     style="stroke:#464646;stroke-opacity:1" />
  <line
     class="cls-1"
     x1="51.63"
     y1="93.94"
     x2="63.85"
     y2="93.94"
     id="line14"
     style="stroke:#464646;stroke-opacity:1" />
  <path
     class="cls-1"
     d="M188,431.31"
     transform="translate(-172.3 -363.27)"
     id="path16"
     style="stroke:#464646;stroke-opacity:1" />
  <path
     class="cls-1"
     d="M189.93,386.75a21,21,0,0,1,42,0Z"
     transform="translate(-172.3 -363.27)"
     id="path18"
     style="stroke:#464646;stroke-opacity:1" />
  <path
     class="cls-1"
     d="M188.75,446.23"
     transform="translate(-172.3 -363.27)"
     id="path20"
     style="stroke:#464646;stroke-opacity:1" />
  <path
     class="cls-1"
     d="M192,417"
     transform="translate(-172.3 -363.27)"
     id="path22"
     style="stroke:#464646;stroke-opacity:1" />
  <path
     class="cls-1"
     d="M225.61,436.84"
     transform="translate(-172.3 -363.27)"
     id="path24"
     style="stroke:#464646;stroke-opacity:1" />
  <path
     class="cls-1"
     d="M195.73,450.2"
     transform="translate(-172.3 -363.27)"
     id="path26"
     style="stroke:#464646;stroke-opacity:1" />
  <path
     class="cls-1"
     d="M348,436"
     transform="translate(-172.3 -363.27)"
     id="path28"
     style="stroke:#464646;stroke-opacity:1" />
  <path
     class="cls-1"
     d="M348,436"
     transform="translate(-172.3 -363.27)"
     id="path30"
     style="stroke:#464646;stroke-opacity:1" />
  <rect
     class="cls-1"
     x="124.24"
     y="29.06"
     width="24"
     height="73.03"
     rx="12"
     id="rect32"
     style="stroke:#464646;stroke-opacity:1" />
  <rect
     class="cls-1"
     x="149.41"
     y="54.11"
     width="44"
     height="21.65"
     id="rect34"
     style="stroke:#464646;stroke-opacity:1" />
  <path
     class="cls-1"
     d="M342.17,425.63c.33.23,6.52,6.57,6.52,6.57l6-5.93"
     transform="translate(-172.3 -363.27)"
     id="path36"
     style="stroke:#464646;stroke-opacity:1" />
  <polyline
     class="cls-1"
     points="96.39 36.1 82.34 65.34 103.98 57.75 90.1 86.62"
     id="polyline38"
     style="stroke:#464646;stroke-opacity:1" />
  <path
     class="cls-1"
     d="M329.93,440.83c1.61,8.08,4.92,13.63,8.74,13.63,2.8,0,5.33-3,7.11-7.76"
     transform="translate(-172.3 -363.27)"
     id="path40"
     style="stroke:#464646;stroke-opacity:1" />
  <path
     class="cls-1"
     d="M348.41,428.67c0-.63,0-1.26,0-1.9,0-13.64-4.37-24.69-9.77-24.69-4,0-7.49,6.16-9,15"
     transform="translate(-172.3 -363.27)"
     id="path42"
     style="stroke:#464646;stroke-opacity:1" />
  <rect
     class="cls-1"
     x="23.43"
     y="37.81"
     width="40.42"
     height="33.89"
     id="rect44"
     style="stroke:#464646;stroke-opacity:1" />
  <line
     class="cls-1"
     x1="19.5"
     y1="14.83"
     x2="57.74"
     y2="14.83"
     id="line46"
     style="stroke:#464646;stroke-opacity:1" />
  <path
     class="cls-1"
     d="M245.09,386.75a21,21,0,0,1,42,0Z"
     transform="translate(-172.3 -363.27)"
     id="path48"
     style="stroke:#464646;stroke-opacity:1" />
  <line
     class="cls-1"
     x1="74.65"
     y1="14.83"
     x2="112.9"
     y2="14.83"
     id="line50"
     style="stroke:#464646;stroke-opacity:1" />
  <path
     class="cls-1"
     d="M257.43,445.45c.21.34,3.43,8.61,3.43,8.61l7.82-3.12"
     transform="translate(-172.3 -363.27)"
     id="path52"
     style="stroke:#464646;stroke-opacity:1" />
  <line
     class="cls-1"
     x1="33.31"
     y1="47.77"
     x2="54.31"
     y2="47.77"
     id="line54"
     style="stroke:#464646;stroke-opacity:1" />
  <line
     class="cls-1"
     x1="33.36"
     y1="60.36"
     x2="54.37"
     y2="60.36"
     id="line56"
     style="stroke:#464646;stroke-opacity:1" />
</svg>
